<svg width="203" height="238" viewBox="0 0 203 238" fill="none" xmlns="http://www.w3.org/2000/svg">
<path fill-rule="evenodd" clip-rule="evenodd" d="M112.162 136.665C111.952 136.236 111.725 135.783 111.483 135.306C110.407 133.114 109.129 130.38 107.657 126.999C104.429 119.598 98.9617 107.522 95.1924 99.2227C94.06 96.7153 93.0732 94.5637 92.3452 92.9784C92.0783 92.3798 91.8356 91.8541 91.6334 91.4335C91.2452 90.5761 91.0268 90.1069 91.0268 90.1069C91.0268 90.1069 74.5424 95.3079 66.4377 91.4415C66.4377 91.4415 66.2597 91.7004 65.9604 92.2099C65.92 92.2747 65.8876 92.3313 65.8472 92.396C64.3104 95.0895 60.347 103.413 60.6948 117.066C60.7352 118.756 60.8485 120.52 61.0265 122.372C61.0993 123.027 61.1639 123.691 61.2529 124.37C61.2529 124.37 56.6263 139.01 56.966 155.503C56.966 155.511 56.966 155.527 56.966 155.535L56.4888 164.287C56.3917 164.756 56.2947 165.249 56.1895 165.791C54.4101 174.964 48.2789 193.114 49.2981 200.774C49.9937 206.016 54.9034 212.3 59.5543 217.21C56.9903 218.221 56.052 219.451 56.0358 219.475C56.0925 219.54 60.0316 224.312 67.1414 226.496C67.1414 226.496 60.3227 228.841 60.3147 236.566L78.8778 225.711L77.8506 223.333L78.6271 217.331C78.6271 217.331 78.6271 217.331 78.6109 217.331C78.3197 217.267 78.0447 217.202 77.7616 217.145C78.7403 208.847 80.9 194.263 84.742 184.678L85.1626 183.659C85.2354 183.489 85.3082 183.311 85.381 183.149L93.1055 183.23C93.1055 183.23 93.1055 183.206 93.1055 183.165C93.1055 183.133 93.1056 183.101 93.1217 183.044C93.1217 183.012 93.1218 182.979 93.1379 182.931C93.1379 182.89 93.1541 182.842 93.1622 182.785C93.6879 179.509 97.6675 159.005 115.705 142.933C115.705 142.933 114.5 141.275 112.146 136.665H112.162Z" fill="#00FFFF"/>
<path fill-rule="evenodd" clip-rule="evenodd" d="M0.985426 89.4445C2.53842 94.2815 5.86278 97.7596 8.7423 99.992C11.5086 102.152 13.8624 103.163 13.8624 103.163C13.8624 103.163 17.2757 99.7898 17.4779 94.7911C17.4779 94.7911 17.9147 92.3321 17.4779 91.0218C16.5154 88.1423 14.2748 84.1466 12.2204 82.2781L11.0637 83.9524C11.0637 83.9524 9.26806 81.259 1.9722 80.6604C1.9722 80.6604 -1.69997 81.0972 0.97733 89.4445H0.985426Z" fill="#00FFFF"/>
<path fill-rule="evenodd" clip-rule="evenodd" d="M78.368 84.1056C79.4276 79.8914 81.5629 76.5671 84.313 73.2993C87.4271 69.5948 91.803 66.9336 96.1466 64.8791C98.7915 63.6254 101.558 62.5254 104.081 61.0209C104.162 60.94 104.243 60.8591 104.316 60.7702C105.351 59.2172 106.265 57.5833 107.074 55.9009C107.446 54.8736 107.778 53.8302 108.053 52.7787C106.912 51.5735 105.804 50.3279 104.858 48.783C103.159 45.9924 102.189 42.1746 102.124 38.9069C102.116 38.5024 102.132 38.1061 102.156 37.7098C101.574 36.5127 101.048 35.2994 100.692 34.0295C99.2364 37.2083 96.4297 42.9673 94.6987 52.5603C94.27 54.9222 93.9061 57.5024 93.6391 60.3415L89.3198 60.4951C89.3198 60.4951 84.0057 79.2848 61.6328 81.5496C43.4417 83.3776 33.9458 73.8574 31.2927 70.3389C31.2118 70.1852 31.1633 70.0234 31.0986 69.8778C28.5588 63.3908 26.4881 49.697 28.4375 36.2134C29.8206 26.6608 33.2016 17.2053 39.8989 10.4757C40.2063 10.1845 40.5217 9.87713 40.8938 9.61021L41.4357 9.20578C42.7218 8.28369 44.3233 7.45057 46.1999 6.69833C48.95 5.59021 52.2339 4.6762 55.8657 3.99677C63.1211 3.14747 73.1266 3.43057 83.1321 8.32413C92.9759 13.1449 97.9018 20.5297 100.102 25.7306C100.28 24.2666 100.628 22.8269 101.161 21.4599C102.844 17.1487 104.575 14.6251 107.446 11.0014C107.527 10.8963 107.608 10.7992 107.689 10.7022C104.162 7.74984 100.013 5.21814 95.1032 3.47101C83.666 -0.613695 67.6992 -0.832087 55.3076 1.49741C51.4332 2.23347 47.9308 3.21218 44.9947 4.39311C43.0049 5.18578 41.282 6.08361 39.9151 7.06232L39.3489 7.49101C38.9526 7.7822 38.6048 8.09765 38.2893 8.42119C21.0769 25.6659 24.2881 59.9451 28.8905 71.7544C28.9713 71.9242 29.0198 72.086 29.1088 72.2559C30.1361 74.4721 32.2068 77.0605 35.0539 79.5922C35.0539 79.5922 35.2157 79.762 35.5473 80.0128C40.8615 84.6313 48.6588 89.08 57.1598 91.1992C63.1939 92.7118 70.5868 93.7147 78.1981 93.6743C77.5187 90.5521 77.5996 87.2682 78.3922 84.1137L78.368 84.1056Z" fill="#00FFFF"/>
<path fill-rule="evenodd" clip-rule="evenodd" d="M14.9459 105.548C16.9276 114.567 34.5849 127.848 45.3911 127.881C45.8764 127.881 46.3618 127.848 46.8309 127.8C53.4231 127.015 58.9718 120.957 62.005 116.848C63.6227 114.68 64.5286 113.054 64.5286 113.054L67.6427 91.369C67.6427 91.369 67.3596 91.3852 66.8662 91.4337C65.3455 91.5955 61.8108 92.0808 58.3328 93.4154C53.7466 95.1706 38.6858 96.0361 31.3009 93.1566C23.9242 90.277 21.5219 87.3814 19.6534 87.3652C17.7769 87.349 15.9489 90.3175 15.9489 90.3175C15.9489 90.3175 12.851 96.0361 14.9459 105.548Z" fill="#00FFFF"/>
<path d="M181.708 191.222C183.972 190.729 186.326 189.92 188.785 188.755C202.293 182.341 204.881 165.404 199.527 153.384C194.051 141.098 178.836 130.421 153.948 140.79C110.318 158.973 98.9457 144.187 98.8406 144.034L96.2441 145.918C96.7537 146.622 109.242 162.896 155.185 143.751C177.914 134.279 191.479 143.192 196.599 154.686C201.338 165.331 199.171 180.27 187.41 185.851C172.899 192.735 162.546 185.576 151.586 177.997C147.242 174.997 142.761 171.891 137.997 169.715C121.044 161.974 107.05 169.359 106.46 169.674L107.989 172.497C108.118 172.424 121.213 165.582 136.663 172.635C141.168 174.689 145.536 177.714 149.758 180.634C159.278 187.218 169.081 193.997 181.708 191.214V191.222Z" fill="#CAB3DA"/>
<path fill-rule="evenodd" clip-rule="evenodd" d="M135.538 223.405C135.538 223.405 143.19 235.554 152.265 233.281L135.538 223.405Z" fill="#CAB3DA"/>
<path fill-rule="evenodd" clip-rule="evenodd" d="M15.1402 106.438C17.0653 115.173 34.6012 127.929 45.3913 127.888C45.8766 127.888 46.3539 127.848 46.8311 127.799C53.4232 126.999 58.9962 121.078 62.0537 117.074C63.6795 114.963 64.6016 113.378 64.6016 113.378L67.8532 92.3231C67.8532 92.3231 67.57 92.3393 67.0766 92.3959C65.556 92.5658 62.0213 93.0592 58.5433 94.3695C53.9571 96.1005 38.9043 97.0388 31.5599 94.2968C24.2075 91.5547 21.8294 88.7642 19.9691 88.7561C18.0925 88.7561 16.2483 91.6437 16.2483 91.6437C16.2483 91.6437 13.1181 97.2086 15.1402 106.421V106.438Z" fill="url(#paint0_radial_75_68)"/>
<path fill-rule="evenodd" clip-rule="evenodd" d="M16.2406 91.6598C16.2406 91.6598 19.6055 90.9157 20.6004 93.0834C21.5953 95.2511 21.6114 107.594 15.1325 106.421C8.6536 105.257 16.2406 91.6517 16.2406 91.6517V91.6598Z" fill="#684D73"/>
<path fill-rule="evenodd" clip-rule="evenodd" d="M17.8014 92.6141C17.8014 92.6141 17.9227 99.2306 13.4498 104.205C13.4498 104.205 11.3872 95.7848 17.8014 92.6141Z" fill="#53345F"/>
<path fill-rule="evenodd" clip-rule="evenodd" d="M2.65967 89.9851C4.10751 94.5632 7.13264 97.8715 9.75332 100.007C12.2689 102.069 14.3961 103.048 14.3961 103.048C14.3961 103.048 17.4374 99.9017 17.5749 95.1861C17.5749 95.1861 17.3485 94.3529 16.944 93.1154C16.0462 90.3896 14.3234 85.7225 12.4468 83.943L11.8887 86.9115C11.8887 86.9115 10.0526 82.3415 3.47662 81.7106C3.47662 81.7106 0.176496 82.0826 2.66776 89.9771L2.65967 89.9851Z" fill="#FF6B22"/>
<path d="M39.8185 95.8662C39.8185 95.8662 42.8436 101.763 41.7032 113.071C40.5627 124.378 32.7734 124.071 32.7734 124.071C32.7734 124.071 37.0442 126.489 40.2796 127.128C40.2796 127.128 59.1582 125.139 46.9769 95.9957L39.8185 95.8582V95.8662Z" fill="#FF6B22"/>
<path style="mix-blend-mode:multiply" fill-rule="evenodd" clip-rule="evenodd" d="M62.054 117.082C62.0944 118.773 62.1995 120.536 62.3775 122.388L70.4256 111.792L69.1071 92.3799L67.1902 92.2181C67.1497 92.2828 67.1173 92.3395 67.0769 92.4042C65.5563 92.574 62.0216 93.0674 58.5435 94.3778C58.5435 94.3778 70.7733 110.256 46.8394 127.783C46.8394 127.783 46.834 127.789 46.8232 127.8C53.4154 126.999 58.9884 121.078 62.0459 117.074L62.054 117.082Z" fill="url(#paint1_linear_75_68)"/>
<path fill-rule="evenodd" clip-rule="evenodd" d="M57.5 219.491C57.5 219.491 62.1428 213.141 79.5251 217.339C79.5251 217.339 71.4204 224.999 57.5 219.491Z" fill="#53345F"/>
<path fill-rule="evenodd" clip-rule="evenodd" d="M142.219 205.546C142.219 205.546 130.879 203.961 123.275 215.94C123.275 215.94 127.918 218.65 134.567 215.892C141.216 213.133 142.211 205.546 142.211 205.546H142.219Z" fill="#53345F"/>
<path fill-rule="evenodd" clip-rule="evenodd" d="M69.4385 225.395L78.0528 223.495C78.0528 223.495 78.2146 221.359 78.6028 217.978C79.5573 209.42 81.8544 192.952 86.1332 183.149L58.6808 160.647C58.6808 160.647 58.2682 162.644 57.6616 165.799C55.9226 174.971 49.9452 193.122 50.94 200.782C52.2746 211.071 69.4385 225.395 69.4385 225.395Z" fill="url(#paint2_radial_75_68)"/>
<path fill-rule="evenodd" clip-rule="evenodd" d="M58.6722 160.647C58.6722 160.647 66.8902 175.643 84.7254 183.133L86.1328 183.149L93.6632 183.23C93.6632 183.23 93.6632 183.206 93.6632 183.165C93.6632 183.133 93.6632 183.101 93.6794 183.044C93.6794 183.012 93.6794 182.979 93.6956 182.931C93.6956 182.89 93.7117 182.842 93.7198 182.785C94.2375 179.509 98.1119 159.005 115.713 142.933C115.713 142.933 114.54 141.275 112.243 136.665C112.04 136.236 111.822 135.783 111.579 135.306C110.528 133.114 109.282 130.38 107.842 126.999C104.688 119.598 99.3575 107.522 95.6853 99.2227C94.5772 96.7153 93.6227 94.5637 92.911 92.9784C92.644 92.3798 92.4095 91.8541 92.2234 91.4335C91.8514 90.5761 91.6329 90.1069 91.6329 90.1069C91.6329 90.1069 75.553 95.3079 67.6505 91.4415C67.6505 91.4415 67.4806 91.7004 67.1813 92.2099C67.1409 92.2747 67.1085 92.3313 67.0681 92.396C65.5717 95.0895 61.7054 103.413 62.0451 117.066C62.0856 118.756 62.1907 120.52 62.3686 122.372C62.4334 123.027 62.5062 123.691 62.5871 124.37C62.5871 124.37 58.0818 139.01 58.4053 155.503C58.4377 157.201 58.5185 158.916 58.6722 160.639V160.647Z" fill="#CAB3DA"/>
<path fill-rule="evenodd" clip-rule="evenodd" d="M93.5744 112.342C93.5744 112.342 93.5744 112.35 93.5744 112.366C93.7928 112.9 94.0273 113.434 94.27 114C98.112 122.736 104.688 131.682 112.235 136.68C116.861 139.746 121.844 141.323 126.778 140.474C137.802 138.573 143.505 130.452 144.977 128.034C145.026 127.945 145.074 127.872 145.114 127.807C145.147 127.726 145.187 127.662 145.228 127.605C145.325 127.443 145.373 127.354 145.373 127.354C145.373 127.354 149.11 125.494 148.318 121.417C147.525 117.333 144.742 111.307 144.742 111.307L142.688 110.927C142.688 110.927 141.758 108.128 138.919 107.812C136.072 107.505 129.641 109.131 121.181 106.009C113.747 103.275 102.868 97.0386 99.2687 94.4826C98.7591 94.1267 98.4032 93.8436 98.2172 93.6414C96.6965 92.0399 94.27 91.0935 94.27 91.0935L93.0325 91.3038L92.2155 91.4413L89.7161 91.8619C89.7161 91.8619 87.419 97.6048 93.5663 112.342H93.5744Z" fill="url(#paint3_radial_75_68)"/>
<path fill-rule="evenodd" clip-rule="evenodd" d="M93.6631 183.239C93.6631 183.239 108.409 200.233 111.887 204.754C115.365 209.276 126.365 216.806 132.351 218.505C132.504 218.545 132.658 218.594 132.787 218.618C138.474 220.017 141.369 216.523 141.369 216.523C141.369 216.523 141.385 215.334 141.385 213.466C141.385 210.983 141.377 207.294 141.272 203.606C141.151 198.696 140.884 193.794 140.35 191.748C139.428 188.27 126.422 163.285 119.692 150.48C117.306 145.959 115.712 142.95 115.712 142.95C97.7074 153.036 94.1241 179.098 93.7197 182.802C93.7116 182.859 93.6955 182.907 93.6955 182.948C93.6874 182.996 93.6793 183.029 93.6793 183.061C93.6712 183.118 93.6631 183.15 93.6631 183.182C93.6631 183.223 93.6631 183.247 93.6631 183.247V183.239Z" fill="url(#paint4_radial_75_68)"/>
<path fill-rule="evenodd" clip-rule="evenodd" d="M88.3416 92.0239C88.3416 92.0239 79.9214 96.7314 76.7102 97.2329C73.4991 97.7344 67.6592 91.4496 67.6592 91.4496C67.6592 91.4496 74.769 93.407 88.3496 92.0239H88.3416Z" fill="#53345F"/>
<path fill-rule="evenodd" clip-rule="evenodd" d="M94.2697 91.1018C94.2697 91.1018 90.6946 115.966 108.287 134.181C108.287 134.181 91.8674 120.868 88.3408 92.032L94.2697 91.1099V91.1018Z" fill="#53345F"/>
<path fill-rule="evenodd" clip-rule="evenodd" d="M69.0986 92.3717C69.0986 92.3717 63.016 110.611 62.5873 124.386C62.5873 124.386 59.3842 108.613 65.1109 92.679L67.6426 91.4496L69.0905 92.3717H69.0986Z" fill="#53345F"/>
<path fill-rule="evenodd" clip-rule="evenodd" d="M118.155 147.56C118.155 147.56 105.739 154.128 96.0411 185.989L93.6631 183.247C93.6631 183.247 96.397 151.37 115.704 142.942L118.147 147.56H118.155Z" fill="#53345F"/>
<path fill-rule="evenodd" clip-rule="evenodd" d="M58.4135 155.552C58.4135 155.552 70.0367 177.698 86.1247 183.15L85.3483 185.067C85.3483 185.067 68.5484 181.848 57.9443 164.328L58.4135 155.544V155.552Z" fill="#53345F"/>
<path fill-rule="evenodd" clip-rule="evenodd" d="M145.382 127.355C145.382 127.355 149.119 125.495 148.326 121.418C147.533 117.334 144.751 111.308 144.751 111.308L142.696 110.928C142.696 110.928 134.454 119.696 145.382 127.355Z" fill="#684D73"/>
<path fill-rule="evenodd" clip-rule="evenodd" d="M146.87 124.014C146.87 124.014 140.957 116.702 144.751 111.307C144.751 111.307 149.79 121.774 146.87 124.014Z" fill="#53345F"/>
<path fill-rule="evenodd" clip-rule="evenodd" d="M143.577 115.505C143.577 115.505 143.982 109.81 148.835 107.635L149.401 110.207C149.401 110.207 155.751 104.755 161.388 108.225C161.388 108.225 160.644 119.541 146.028 122.954C146.028 122.954 143.594 120.188 143.569 115.505H143.577Z" fill="#FF6B22"/>
<path d="M136.686 183.57C136.686 183.57 138.344 191.562 127.813 197.919C117.282 204.277 108.684 200.807 108.684 200.807C108.684 200.807 112.493 205.943 115.316 208.224C118.139 210.505 134.575 206.509 141.03 197.41C141.03 197.41 141.03 193.139 140.059 190.866C139.08 188.593 136.694 183.57 136.694 183.57H136.686Z" fill="#FF6B22"/>
<path d="M82.2746 195.549C82.2746 195.549 75.1405 201.567 66.7285 204.244C58.3164 206.921 51.4492 203.37 51.4492 203.37C51.4492 203.37 53.5442 208.846 56.5693 212.066C56.5693 212.066 66.2189 212.753 71.5492 210.335C76.8796 207.916 80.7863 202.812 80.7863 202.812L82.2746 195.549Z" fill="#FF6B22"/>
<path d="M118.981 105.144C118.981 105.144 103.492 121.095 119.677 140.103C119.677 140.103 115.948 139.31 112.729 136.981C107.754 133.705 97.0773 108.048 113.174 102.37L118.981 105.144Z" fill="#FF6B22"/>
<path d="M86.0118 183.222L86.2383 183.077C86.1412 182.915 76.1519 167.102 73.5312 155.195C71.2664 144.891 71.6789 139.487 72.2613 132.014C72.4797 129.191 72.7304 125.988 72.8437 122.162C73.24 108.694 75.3754 97.694 75.3997 97.5888L75.1408 97.5403C75.1166 97.6535 72.9812 108.67 72.5848 122.162C72.4716 125.98 72.2209 129.183 72.0025 132.006C71.4201 139.504 71.0076 144.923 73.2804 155.268C75.9092 167.215 85.9228 183.077 86.028 183.23L86.0118 183.222Z" fill="#53345F"/>
<path style="mix-blend-mode:multiply" fill-rule="evenodd" clip-rule="evenodd" d="M77.8989 218.132L78.6026 217.978C79.557 209.421 81.8542 192.952 86.133 183.149L93.6634 183.23C93.6634 183.23 108.409 200.224 111.887 204.745C115.365 209.267 126.365 216.805 132.351 218.496C132.505 218.536 132.658 218.585 132.788 218.609L141.386 213.457C141.386 210.974 141.378 207.285 141.273 203.597L140.585 203.314C140.585 203.314 131.283 211.807 121.957 209.963C112.623 208.118 99.7541 183.998 100.523 179.978C103.386 164.95 113.974 154.92 119.692 150.471C117.306 145.95 115.713 142.941 115.713 142.941C115.713 142.941 114.54 141.283 112.243 136.672C116.869 139.738 121.852 141.315 126.786 140.466C137.811 138.565 143.513 130.444 144.985 128.026C143.343 130.566 136.33 139.706 120.509 138.622C117.153 138.395 114.176 137.182 111.58 135.305C99.9482 126.982 95.5238 105.661 95.4995 101.22C95.4995 100.476 95.5642 99.8129 95.6856 99.2225C96.4459 95.4613 99.2688 94.4826 99.2688 94.4826C98.7592 94.1267 98.4033 93.8436 98.2173 93.6414C96.6966 92.0399 94.2701 91.0935 94.2701 91.0935L93.0325 91.2957C93.0083 91.7163 92.9516 92.2906 92.9112 92.9781C92.6766 96.7716 92.4501 104.302 93.5664 112.334C93.5664 112.334 93.5664 112.342 93.5664 112.358C94.2458 117.292 95.4429 122.428 97.4488 126.998C104.13 142.229 106.597 144.939 106.597 144.939C106.597 144.939 96.9393 167.433 89.8133 172.367C82.6711 177.293 66.1624 165.815 62.288 160.687C60.4358 158.261 59.2063 156.594 58.4055 155.519C58.4379 157.217 58.5188 158.932 58.6724 160.655C58.6724 160.655 58.26 162.653 57.6533 165.807C61.4549 171.178 74.3642 189.765 76.3378 196.859C78.6511 205.198 77.8989 218.14 77.8989 218.14V218.132Z" fill="url(#paint5_linear_75_68)"/>
<g style="mix-blend-mode:multiply" opacity="0.5">
<path fill-rule="evenodd" clip-rule="evenodd" d="M94.2779 91.0935C94.2779 91.0935 89.1821 104.205 75.6176 110.643C62.0531 117.082 61.3252 93.4554 61.3252 93.4554L65.1268 92.6789L67.1975 92.2178L94.286 91.0935H94.2779Z" fill="#53345F"/>
</g>
<path fill-rule="evenodd" clip-rule="evenodd" d="M79.7758 225.719L78.7728 223.341L79.5331 217.339C79.5331 217.339 66.3246 221.626 57.5 219.483C57.5 219.483 61.3501 224.304 68.3305 226.504C68.3305 226.504 60.8567 228.979 60.3067 236.574L79.7758 225.719Z" fill="#684D73"/>
<path fill-rule="evenodd" clip-rule="evenodd" d="M123.324 215.948L134.979 220.906L135.529 223.413C135.529 223.413 141.725 232.214 152.265 233.29C152.265 233.29 151.65 224.238 142.105 218.593L142.211 205.546C142.211 205.546 140.221 210.448 135.165 214.087C130.328 217.549 123.882 216.093 123.308 215.956L123.324 215.948Z" fill="#684D73"/>
<path fill-rule="evenodd" clip-rule="evenodd" d="M79.7755 225.719L80.8755 226.933L60.8645 237.836L60.3145 236.574L79.7755 225.719Z" fill="#CAB3DA"/>
<path style="mix-blend-mode:multiply" fill-rule="evenodd" clip-rule="evenodd" d="M57.5 219.483C57.5 219.483 61.3501 224.303 68.3305 226.504C68.3305 226.504 76.3463 225.217 79.7758 225.711L78.7728 223.333L79.5331 217.331C79.5331 217.331 66.3246 221.618 57.5 219.475V219.483Z" fill="url(#paint6_linear_75_68)"/>
<path style="mix-blend-mode:multiply" fill-rule="evenodd" clip-rule="evenodd" d="M123.325 215.948L134.98 220.906C139.065 220.639 142.114 218.593 142.114 218.593L142.219 205.546C142.219 205.546 140.23 210.448 135.174 214.087C130.337 217.549 123.891 216.093 123.316 215.956L123.325 215.948Z" fill="url(#paint7_linear_75_68)"/>
<path style="mix-blend-mode:multiply" fill-rule="evenodd" clip-rule="evenodd" d="M157.935 116.079C157.935 116.079 153.058 120.164 148.625 119.784C144.193 119.404 143.7 114.713 143.7 114.713C143.7 114.713 142.688 118.352 146.045 122.947C146.045 122.947 154.304 121.183 157.935 116.071V116.079Z" fill="url(#paint8_linear_75_68)"/>
<path style="mix-blend-mode:multiply" fill-rule="evenodd" clip-rule="evenodd" d="M9.75293 100.006C12.2685 102.069 14.3957 103.048 14.3957 103.048C14.3957 103.048 17.437 99.9013 17.5745 95.1857C17.5745 95.1857 17.3481 94.3525 16.9436 93.115C16.9436 93.115 16.4826 97.871 9.75293 100.006Z" fill="url(#paint9_linear_75_68)"/>
<path fill-rule="evenodd" clip-rule="evenodd" d="M78.4409 117.479C79.274 121.265 83.019 123.659 86.8044 122.826C90.5899 121.993 92.9841 118.248 92.1509 114.462C91.3178 110.677 87.5729 108.283 83.7874 109.116C80.002 109.949 77.6078 113.694 78.4409 117.479Z" fill="#684D73"/>
<path fill-rule="evenodd" clip-rule="evenodd" d="M80.9886 116.912C81.5143 119.29 83.8681 120.795 86.2461 120.269C88.6241 119.743 90.1286 117.389 89.6029 115.011C89.0771 112.633 86.7234 111.129 84.3453 111.655C81.9673 112.18 80.4628 114.534 80.9886 116.912Z" fill="#FF6B22"/>
<path fill-rule="evenodd" clip-rule="evenodd" d="M110.552 101.124C110.552 101.124 103.046 107.546 100.328 95.2028C100.328 95.2028 107.697 99.5867 110.552 101.124Z" fill="#684D73"/>
<path d="M83.6333 190.413V190.146C83.3907 190.146 59.481 190.445 53.4874 183.271L53.2852 183.441C59.3516 190.712 82.6465 190.429 83.6333 190.413Z" fill="#53345F"/>
<path d="M101.347 192.629C101.347 192.572 101.622 186.627 104.259 180.205C108.409 170.094 123.987 159.045 124.141 158.932L123.987 158.714C123.833 158.827 108.19 169.924 104.008 180.1C101.355 186.57 101.08 192.556 101.072 192.613H101.339L101.347 192.629Z" fill="#53345F"/>
<path d="M136.961 136.325L137.212 136.22C132.375 124.378 133.127 117.301 134.608 113.459C136.201 109.317 138.951 107.942 138.984 107.926L138.87 107.684C138.757 107.74 135.999 109.115 134.365 113.362C132.869 117.252 132.1 124.394 136.97 136.317L136.961 136.325Z" fill="#53345F"/>
<path d="M25.5099 119.395C35.8714 108.079 24.9276 91.1902 24.8143 91.0204L24.5879 91.166C24.7011 91.3358 35.5316 108.047 25.3077 119.209L25.5019 119.387L25.5099 119.395Z" fill="#53345F"/>
<path d="M87.7988 136.697C87.7988 136.697 88.1385 138.461 89.5055 141.154L92.6762 140.103C92.6762 140.103 92.1343 137.522 90.2416 135.913L87.7988 136.689V136.697Z" fill="white"/>
<path d="M132.221 109.285C132.221 109.285 130.425 109.625 128.775 109.026L127.344 110.361C127.344 110.361 129.657 112.165 131.631 111.032L132.229 109.285H132.221Z" fill="white"/>
<path d="M129.99 184.355C129.99 184.355 131.809 186.224 132.327 188.537L130.062 190.058L128.064 185.868L129.99 184.355Z" fill="white"/>
<path d="M20.4219 89.0555C20.4219 89.0555 21.7969 89.8725 22.5492 91.8784L24.7331 92.6145C24.7331 92.6145 24.2801 91.652 23.5602 90.8269C22.8403 90.0019 20.4219 89.0555 20.4219 89.0555Z" fill="white"/>
<path d="M55.6228 190.47C55.6228 190.47 53.6087 195.841 53.7947 198.567L51.4329 198.187C51.4329 198.187 51.0608 193.98 52.8726 190.26L55.6309 190.47H55.6228Z" fill="white"/>
<path d="M33.2504 69.0701C33.3151 69.2238 33.3717 69.3775 33.4526 69.5231C36.1137 72.9526 45.6096 82.2463 63.7927 80.4507C86.1655 78.2506 91.4716 59.922 91.4716 59.922L95.799 59.7683C96.0659 57.002 96.4299 54.4703 96.8586 52.1732C99.2447 39.272 103.669 33.4806 103.782 31.5879C103.92 29.3554 100.377 16.2277 85.292 9.02895C75.2865 4.25671 65.2648 3.9817 58.0174 4.80673C54.3857 5.46999 51.1018 6.35973 48.3517 7.4436C46.4832 8.17156 44.8736 8.99659 43.5875 9.88633L43.0537 10.2827C42.6816 10.5496 42.3581 10.8489 42.0588 11.132C35.3696 17.6837 31.9724 26.9127 30.5973 36.2388C28.648 49.3988 30.7186 62.753 33.2504 69.0701Z" fill="url(#paint10_linear_75_68)"/>
<path style="mix-blend-mode:lighten" d="M33.2504 69.0701C33.3151 69.2238 33.3717 69.3775 33.4526 69.5231C36.1137 72.9526 45.6096 82.2463 63.7927 80.4507C86.1655 78.2506 91.4716 59.922 91.4716 59.922L95.799 59.7683C96.0659 57.002 96.4299 54.4703 96.8586 52.1732C99.2447 39.272 103.669 33.4806 103.782 31.5879C103.92 29.3554 100.377 16.2277 85.292 9.02895C75.2865 4.25671 65.2648 3.9817 58.0174 4.80673C54.3857 5.46999 51.1018 6.35973 48.3517 7.4436C46.4832 8.17156 44.8736 8.99659 43.5875 9.88633L43.0537 10.2827C42.6816 10.5496 42.3581 10.8489 42.0588 11.132C35.3696 17.6837 31.9724 26.9127 30.5973 36.2388C28.648 49.3988 30.7186 62.753 33.2504 69.0701Z" fill="url(#paint11_radial_75_68)"/>
<g style="mix-blend-mode:lighten">
<path d="M59.2789 81.0808C42.7944 81.0808 34.6898 71.779 33.1287 69.765C33.0316 69.5951 32.9911 69.4819 32.9426 69.3767L32.8779 69.2149C30.1278 62.3559 28.3241 48.7995 30.2006 36.1733C31.8022 25.3185 35.7008 16.7932 41.7834 10.84C42.0745 10.565 42.4143 10.2496 42.8268 9.95029L43.3606 9.55395C44.6629 8.64803 46.2968 7.81492 48.2137 7.06268C50.9638 5.97882 54.2478 5.08099 57.9604 4.40156C64.8357 3.62506 75.1567 3.7383 85.4776 8.65612C100.15 15.6608 104.381 28.7238 104.203 31.6114C104.162 32.2827 103.693 33.2857 102.973 34.8063C101.444 38.0418 98.8965 43.453 97.2707 52.2452C96.8258 54.6152 96.4619 57.163 96.2111 59.808L96.1787 60.1639L91.7786 60.3176C90.9779 62.6632 84.7011 78.7999 63.8408 80.8543C62.2554 81.008 60.7348 81.0808 59.287 81.0808H59.2789ZM33.6221 68.9157L33.6868 69.0694C33.7272 69.1583 33.7595 69.2473 33.8081 69.3363C35.4177 71.4069 44.6225 81.9382 63.7518 80.0536C85.5747 77.9101 91.0344 59.994 91.083 59.8161L91.1639 59.533L95.4265 59.3793C95.6772 56.8395 96.0251 54.3887 96.4619 52.0996C98.1038 43.2103 100.684 37.7344 102.229 34.4666C102.884 33.0835 103.353 32.0886 103.386 31.5628C103.483 29.937 100.409 16.688 85.1217 9.39218C74.9706 4.54715 64.8033 4.442 58.0656 5.20232C54.4338 5.87367 51.2065 6.74723 48.4969 7.81492C46.6284 8.55097 45.0592 9.35174 43.8136 10.2172L43.2879 10.6055C42.9158 10.8724 42.5923 11.1717 42.3334 11.4224C36.3884 17.2461 32.5705 25.6178 30.9933 36.2946C29.141 48.7752 30.9124 62.1537 33.6221 68.9157Z" fill="url(#paint12_linear_75_68)"/>
</g>
<path d="M45.1076 57.0655C44.3554 59.9451 40.303 63.3746 42.3008 69.5866C42.9479 71.6087 44.4848 73.8897 46.5716 76.0008C50.8666 80.3686 57.5073 84.0731 63.5009 83.4989C63.7678 83.4746 64.0509 83.4342 64.3178 83.4018C62.6112 75.4993 67.7716 68.6483 75.1645 66.5049C78.1897 65.6313 82.9619 62.5415 85.8657 60.7944C85.9627 59.6539 86.0193 58.5053 86.0679 57.3567C86.2135 53.8544 85.7282 51.08 84.9517 47.5939C83.2612 40.0068 87.2973 34.5471 92.8056 32.1367C91.0828 31.3521 89.5541 30.2682 88.2275 28.8528C87.5158 27.8498 86.804 26.8468 86.1003 25.8438C84.8951 23.5305 84.3531 21.0635 84.4745 18.459C84.4987 18.1031 84.5068 17.7472 84.5473 17.3913C84.5554 17.3104 84.5634 17.2376 84.5796 17.1567C84.6605 16.6067 84.7656 15.9758 84.8789 15.3449C82.7839 12.9345 80.4464 9.2138 78.8125 3.51947C78.8125 3.51947 78.8125 3.51138 78.8125 3.5033V3.51139C78.772 3.56801 76.5072 6.7468 76.9278 10.4433H76.9197C76.8469 10.3785 66.7363 1.55396 61.495 5.1938C60.4434 5.92177 59.7316 7.14313 59.2625 8.63142C55.8249 8.3645 51.2872 7.70933 46.8628 6.18869C46.426 6.51223 45.9407 6.81151 45.4473 7.08652C45.3907 8.51818 45.5039 10.8477 46.515 12.975C45.5848 12.5705 44.3634 11.1146 44.0722 10.0469C44.0722 10.0469 41.2817 17.2214 45.8436 21.7591C45.8679 21.7834 45.8922 21.8157 45.9164 21.84C45.9892 21.9128 46.0701 21.9694 46.1429 22.0341C46.3128 22.1959 46.4664 22.3496 46.6606 22.5033C46.6606 22.5033 46.6282 22.5275 46.5797 22.5761C46.1025 22.9481 45.512 23.6599 45.1561 24.121C45.1238 24.1614 45.0914 24.2099 45.051 24.2504C44.9215 24.4202 44.8406 24.5254 44.8406 24.5254C43.0531 26.3129 41.9288 32.1852 42.7862 36.5773C42.7862 36.5773 43.6355 35.089 45.7142 33.4875C45.5929 34.5794 45.6495 35.5015 45.6495 35.5015C45.2532 37.6773 45.1237 39.8936 45.2289 42.126C45.3907 45.4504 45.5282 48.1762 45.5767 50.4491C45.512 51.5896 45.512 52.7058 45.5524 53.7169C45.5282 54.2588 45.4958 54.7846 45.4392 55.2537C45.4392 55.2537 45.423 55.3346 45.415 55.4721C45.3422 56.0545 45.2451 56.5721 45.1237 57.0575L45.1076 57.0655ZM47.7606 29.0469C47.8657 28.5454 47.9547 28.1733 48.0113 28.1167L48.3996 27.7527C48.157 28.1733 47.9709 28.6182 47.7606 29.0469Z" fill="#AEFFFF"/>
<path d="M84.7337 76.818C84.7337 76.818 84.0542 79.8027 85.2918 83.2241C85.2918 83.2241 76.1194 91.1185 73.1671 91.6119C70.2148 92.1134 73.3046 86.9691 73.3046 86.9691C73.3046 86.9691 74.0649 83.7013 73.4987 81.024L84.7337 76.818Z" fill="#CC5268"/>
<path d="M102.585 31.1189C106.411 43.7532 101.994 61.7663 94.3993 69.9276C86.8042 78.089 74.2185 82.481 64.6821 83.4112C58.6561 84.0017 51.9912 80.3942 47.6962 76.1073C45.6093 74.0366 44.0725 71.8042 43.4335 69.8144C41.4599 63.7157 45.5446 60.3185 46.3211 57.4794C46.4505 57.0022 46.5476 56.4926 46.6285 55.9183C46.6285 55.7808 46.6527 55.6999 46.6527 55.6999C46.9924 52.8608 46.7659 48.7923 46.499 42.7744C46.1755 35.3654 48.4727 28.0452 55.0244 22.2619C69.4381 9.5225 98.7752 18.4846 102.601 31.1189H102.585Z" fill="url(#paint13_linear_75_68)"/>
<path style="mix-blend-mode:multiply" opacity="0.6" d="M102.585 31.1185C106.411 43.7527 101.995 61.7659 94.3999 69.9272C86.8048 78.0885 74.219 82.4806 64.6826 83.4108C58.6567 84.0013 51.9917 80.3938 47.6967 76.1069V76.0907C47.6967 76.0907 53.4476 78.7599 58.9317 78.8812C64.4076 79.0187 76.3139 75.7914 83.0193 69.0213C89.7247 62.2431 91.9491 54.6399 90.9542 53.4266C89.9674 52.2133 87.8967 53.8068 87.8967 53.8068C87.8967 53.8068 78.8052 64.9447 69.8916 61.4424C63.4208 58.9026 64.7312 35.4943 68.9615 29.5412C68.9615 29.5412 82.4289 33.1406 86.2547 40.9703C86.2547 40.9703 88.3011 35.551 85.5429 29.4441C82.7928 23.3373 75.6911 21.3232 68.4276 23.0542C61.1722 24.8013 58.5839 27.7374 58.5839 27.7374C58.5839 27.7374 51.6682 29.6544 50.188 32.6795C50.188 32.6795 54.1433 39.1665 55.8661 43.4373C57.6052 47.7161 56.2382 56.4922 55.397 57.7378C54.5477 58.9834 50.6733 60.9651 48.3114 60.8276C46.2408 60.7063 46.5158 56.8562 46.6209 55.9017C46.6209 55.7642 46.6452 55.6833 46.6452 55.6833C46.9849 52.8442 46.7584 48.7757 46.4915 42.7578C46.168 35.3487 48.4651 28.0286 55.0168 22.2453C69.4306 9.5059 98.7677 18.468 102.594 31.1023L102.585 31.1185Z" fill="url(#paint14_linear_75_68)"/>
<path d="M105.554 37.864V37.8802C105.562 46.7129 102.399 56.1926 102.399 56.1926C99.4794 56.7507 95.1682 61.1105 94.8608 61.4097C95.0307 60.9487 97.9183 53.4991 97.3764 49.9078C96.8183 46.2033 94.7072 39.8053 94.7072 39.8053L94.4402 34.5396C94.1329 28.7402 89.2878 24.8738 89.2878 24.8738C83.9494 25.3025 81.8707 20.4494 81.8707 20.4494C81.8707 20.4494 79.6867 17.9662 74.1704 18.5324C68.654 19.1067 60.3309 25.4239 60.3309 25.4239C57.419 26.0224 53.4476 25.2297 53.4476 25.2297C51.5872 26.4349 49.0716 29.3225 49.0716 29.3225C45.8848 31.2233 43.256 34.572 43.256 34.572C43.0376 27.4783 48.0363 23.4422 48.0363 23.4422C42.4391 18.953 44.445 12.3366 44.445 12.3366C45.9899 13.9139 47.9393 14.0595 47.9393 14.0595C46.3539 10.7674 47.0253 6.92538 47.0253 6.92538C55.9065 10.8888 68.2334 9.74828 68.2334 9.74828C72.9166 8.75339 78.5381 11.4226 78.5381 11.4226C78.1256 7.75042 80.4713 4.57971 80.4713 4.57971C80.447 9.5946 85.7612 16.6882 89.1827 18.1765C92.6041 19.6648 100.685 20.0773 104.341 29.7836C105.238 32.1697 105.586 34.9764 105.586 37.864H105.554Z" fill="url(#paint15_linear_75_68)"/>
<path d="M68.9612 29.5496C68.9612 29.5496 69.0259 32.1217 70.6922 34.2571C70.6922 34.2571 77.6968 35.1064 81.0536 36.9506C84.4184 38.8028 86.2383 40.9787 86.2383 40.9787C86.2383 40.9787 81.458 31.6364 68.9531 29.5496H68.9612Z" fill="url(#paint16_linear_75_68)"/>
<path d="M48.5615 30.9888C48.5615 30.9888 52.6382 34.2727 55.6552 42.8142C55.6552 42.8142 50.3653 33.3425 46.9358 36.2463C46.9358 36.2463 46.6688 32.0565 48.5615 30.9888Z" fill="url(#paint17_linear_75_68)"/>
<path d="M66.8899 50.8618C66.8899 50.8618 66.9465 43.6872 72.4791 41.835C76.9601 40.3305 82.2096 43.8652 84.0538 51.525L66.8818 50.8618H66.8899Z" fill="#6D3A51"/>
<path d="M61.0505 61.1762C61.0505 61.1762 58.082 57.5687 56.254 57.957C54.426 58.3452 51.3281 61.6777 51.3281 61.6777C51.3281 61.6777 52.8973 63.0042 55.5665 62.9476C58.2357 62.8829 61.0505 61.1762 61.0505 61.1762Z" fill="#F58E6F"/>
<path d="M67.9737 58.2075C65.8464 54.3573 66.2104 46.0747 72.293 43.5106C78.3756 40.9465 84.8383 48.574 84.2559 54.1551C83.6897 59.5259 70.7319 63.19 67.9737 58.2155V58.2075Z" fill="url(#paint18_linear_75_68)"/>
<path fill-rule="evenodd" clip-rule="evenodd" d="M51.328 61.676C51.328 61.676 53.0266 62.7356 56.2944 62.2827C60.3305 61.7246 61.0504 61.1746 61.0504 61.1746C61.0504 61.1746 62.4255 62.1533 60.9453 63.1805C59.9585 63.8599 57.0143 66.5292 53.7546 66.0439C52.2825 65.8255 50.6163 62.8408 51.3361 61.676H51.328Z" fill="#DD6668"/>
<path d="M47.0085 56.6136C47.3806 58.5387 48.238 60.0836 49.791 59.9299C51.3359 59.7762 54.9272 58.3122 55.7522 54.3326C56.3022 51.6958 53.2771 43.0653 49.8395 43.1139C46.9115 43.1543 46.2887 52.8444 47.0085 56.6136Z" fill="url(#paint19_linear_75_68)"/>
<mask id="mask0_75_68" style="mask-type:luminance" maskUnits="userSpaceOnUse" x="66" y="42" width="19" height="19">
<path d="M67.9737 58.2067C65.8464 54.3566 66.2104 46.0739 72.293 43.5099C78.3756 40.9458 84.8383 48.5733 84.2559 54.1544C83.6897 59.5251 70.7319 63.1893 67.9737 58.2148V58.2067Z" fill="white"/>
</mask>
<g mask="url(#mask0_75_68)">
<path d="M75.181 53.3457C75.2053 58.0128 73.0457 61.8063 70.3684 61.8144C67.6911 61.8306 65.4991 58.0532 65.4748 53.3861C65.4505 48.719 67.6102 44.9255 70.2875 44.9094C72.9648 44.8932 75.1568 48.6705 75.181 53.3376V53.3457Z" fill="url(#paint20_linear_75_68)"/>
<path d="M73.393 53.1431C73.4092 56.5403 71.84 59.3066 69.8826 59.3147C67.9333 59.3228 66.3317 56.5727 66.3156 53.1755C66.2994 49.7783 67.8686 47.012 69.826 47.0039C71.7753 46.9958 73.3768 49.7459 73.393 53.1431Z" fill="#402F40"/>
</g>
<mask id="mask1_75_68" style="mask-type:luminance" maskUnits="userSpaceOnUse" x="46" y="43" width="10" height="17">
<path d="M47.0085 56.6134C47.3806 58.5384 48.238 60.0833 49.791 59.9297C51.3359 59.776 54.9272 58.312 55.7522 54.3324C56.3022 51.6955 53.2771 43.0651 49.8395 43.1136C46.9115 43.154 46.2887 52.8441 47.0085 56.6134Z" fill="white"/>
</mask>
<g mask="url(#mask1_75_68)">
<path d="M51.5943 54.0259C51.473 58.0702 50.1546 61.3137 48.6421 61.2652C47.1295 61.2247 45.9971 57.9084 46.1103 53.8642C46.2317 49.8199 47.5501 46.5764 49.0626 46.6249C50.5752 46.6654 51.7076 49.9817 51.5943 54.0259Z" fill="url(#paint21_linear_75_68)"/>
<path d="M50.0823 53.9612C49.9933 56.9054 49.0308 59.2673 47.9307 59.2349C46.8307 59.2025 46.0056 56.7922 46.0865 53.8398C46.1755 50.8956 47.1381 48.5338 48.2381 48.5661C49.3381 48.5985 50.1631 51.0089 50.0823 53.9612Z" fill="#402F40"/>
</g>
<path fill-rule="evenodd" clip-rule="evenodd" d="M56.5608 49.625C56.5608 49.625 56.3101 56.0473 54.749 57.9643C53.4548 59.5577 52.007 60.2534 51.0364 60.9975C50.0657 61.7417 51.1254 65.2844 53.746 66.0367C53.746 66.0367 50.4459 63.7638 51.3276 61.6689C51.7077 60.7791 54.7814 59.7114 55.6954 57.6246C56.9814 54.6804 56.5608 49.6169 56.5608 49.6169V49.625Z" fill="#CC5268"/>
<path fill-rule="evenodd" clip-rule="evenodd" d="M57.3217 64.9205C57.3217 64.9205 55.2753 63.3999 60.7755 63.0925C60.7755 63.0925 60.0152 63.3918 58.8585 63.9337C57.7423 64.4595 57.3298 64.9205 57.3298 64.9205H57.3217Z" fill="#A13751"/>
<path d="M53.2773 69.3447C53.2773 69.3447 54.3208 69.919 55.6716 69.9514C57.0224 69.9918 62.927 68.3417 65.5153 67.5491C68.1117 66.7564 69.8103 65.5997 69.8103 65.5997L70.3522 65.988C70.3522 65.988 66.8337 69.1101 62.8784 70.9543C58.9231 72.7985 56.8687 72.8551 56.0113 72.7419C55.1539 72.6287 53.52 70.0889 53.52 70.0889L53.2773 69.3447Z" fill="#8B2E45"/>
<path d="M54.6279 69.8225C54.6279 69.8225 55.7927 72.0469 56.7876 72.3542C57.7825 72.6616 62.4172 71.3351 65.2077 69.4181L67.1328 66.9673C67.1328 66.9673 57.4185 70.4534 54.6279 69.8225Z" fill="#FFEBED"/>
<path style="mix-blend-mode:multiply" opacity="0.6" d="M68.4922 64.9452L69.3091 64.1606C69.3091 64.1606 71.1291 65.285 71.76 67.2262C71.76 67.2262 69.2282 65.0989 68.4922 64.9452Z" fill="url(#paint22_linear_75_68)"/>
<path d="M78.1491 49.3582C78.3432 49.9648 78.0116 50.62 77.4049 50.8141C76.7983 51.0082 76.1431 50.6766 75.949 50.07C75.7549 49.4633 76.0865 48.8082 76.6931 48.614C77.2998 48.4199 77.9549 48.7515 78.1491 49.3582Z" fill="white"/>
<path d="M52.9373 48.1528C53.1072 48.6704 52.824 49.2285 52.3064 49.3903C51.7887 49.5602 51.2306 49.2771 51.0689 48.7594C50.899 48.2417 51.1821 47.6836 51.6997 47.5219C52.2174 47.352 52.7755 47.6351 52.9373 48.1528Z" fill="white"/>
<path d="M47.3 47.1412C47.3 47.1412 47.7611 43.008 50.0421 42.4014C52.323 41.7947 55.9386 49.3818 55.8173 53.5069C55.8173 53.5069 53.9893 45.4831 49.5487 44.3264C49.5487 44.3264 48.1089 44.5934 47.292 47.1332L47.3 47.1412Z" fill="#6D3A51"/>
<path d="M80.4464 4.58801C80.4464 4.58801 77.6639 10.6706 81.2309 17.9826C84.8061 25.2947 91.3254 20.0776 91.3254 20.0776C91.3254 20.0776 84.07 17.1495 80.4464 4.58801Z" fill="url(#paint23_linear_75_68)"/>
<path d="M47.001 6.93372C47.001 6.93372 47.6319 14.8039 52.4931 17.6348C57.3624 20.4658 66.5671 9.85368 66.5671 9.85368C66.5671 9.85368 56.2219 10.3875 47.001 6.93372Z" fill="url(#paint24_linear_75_68)"/>
<path style="mix-blend-mode:multiply" opacity="0.91" d="M48.0197 23.4505L53.439 25.238L49.3867 28.9669C49.3867 28.9669 47.2594 27.6242 46.1836 25.4403C46.1836 25.4403 47.2836 23.9681 48.0197 23.4424V23.4505Z" fill="url(#paint25_linear_75_68)"/>
<path style="mix-blend-mode:multiply" opacity="0.91" d="M44.4281 12.3441C44.4281 12.3441 45.9488 15.8707 51.7159 19.2517C57.4749 22.6327 60.3221 25.4314 60.3221 25.4314C60.3221 25.4314 51.5056 26.8954 47.2753 22.7945C43.045 18.6855 44.4281 12.3441 44.4281 12.3441Z" fill="url(#paint26_linear_75_68)"/>
<path style="mix-blend-mode:multiply" opacity="0.91" d="M105.553 37.8645V37.8807C105.561 46.7134 102.399 56.1931 102.399 56.1931C99.4786 56.7512 95.1675 61.111 94.8601 61.4102C95.03 60.9492 97.9176 53.4997 97.3756 49.9083C96.8175 46.2038 94.7064 39.8058 94.7064 39.8058L94.4395 34.5401C94.1321 28.7407 89.2871 24.8743 89.2871 24.8743C89.2871 24.8743 94.0755 24.4376 96.4535 23.3375C96.4535 23.3375 94.0998 26.0391 92.7409 26.5325C92.7409 26.5325 94.4152 32.8092 98.1521 37.1366C101.881 41.4558 105.569 37.8564 105.569 37.8564L105.553 37.8645Z" fill="url(#paint27_linear_75_68)"/>
<path d="M96.551 59.5488C96.551 59.5488 101.493 54.914 107.341 55.6744C113.189 56.4347 111.426 68.0579 104.065 72.5228C96.6966 76.9957 93.0649 72.6926 92.8303 70.6462C92.5958 68.5998 96.5591 59.5488 96.5591 59.5488H96.551Z" fill="url(#paint28_linear_75_68)"/>
<path style="mix-blend-mode:multiply" opacity="0.6" fill-rule="evenodd" clip-rule="evenodd" d="M95.7416 64.8958C95.7416 64.8958 100.053 60.342 104.348 60.4067C108.643 60.4714 107.235 67.654 107.235 67.654C107.235 67.654 106.831 66.6996 105.318 66.7238C105.318 66.7238 103.288 69.571 99.2682 71.1887C99.2682 71.1887 104.154 68.0746 104.623 65.6238C104.623 65.6238 101.404 70.396 97.8608 69.7813C94.318 69.1666 95.7416 64.8877 95.7416 64.8877V64.8958Z" fill="url(#paint29_linear_75_68)"/>
<path fill-rule="evenodd" clip-rule="evenodd" d="M95.7664 68.3009C95.7664 68.3009 100.223 68.3009 101.485 66.3193C102.739 64.3457 101.275 62.6552 101.275 62.6552C101.275 62.6552 97.7723 63.1647 96.2193 65.3648C96.2193 65.3648 95.3862 66.9421 95.7664 68.3009Z" fill="#CC5268"/>
<path d="M85.0654 60.9972C85.308 61.7576 84.8956 62.5664 84.1352 62.8091C83.3749 63.0517 82.5661 62.6392 82.3234 61.8789C82.0807 61.1186 82.4932 60.3097 83.2536 60.0671C84.0139 59.8244 84.8227 60.2369 85.0654 60.9972Z" fill="#FFBBA6"/>
<path d="M60.8484 25.6012C60.8484 25.6012 57.71 9.94185 63.0161 6.32628C68.3221 2.71071 78.5056 11.4221 78.5056 11.4221C78.5056 11.4221 78.9829 15.1509 80.0344 17.4965C80.0344 17.4965 72.9973 14.431 67.3758 16.2833C61.7543 18.1355 60.8403 25.6012 60.8403 25.6012H60.8484Z" fill="url(#paint30_linear_75_68)"/>
<path d="M62.385 6.82739C61.3739 8.07303 60.8077 9.34292 60.2011 11.7776C59.0606 10.7422 59.2466 8.62305 59.2466 8.62305L62.3931 6.82739H62.385Z" fill="#AEFFFF"/>
<path d="M48.0118 23.4423L49.0957 24.1136L46.6367 23.5151L48.0118 23.4423Z" fill="#AEFFFF"/>
<path d="M78.7567 8.28455C78.3604 10.2339 78.684 12.4259 79.4443 14.7554C79.0318 14.8443 76.9854 10.1449 76.9854 10.1449L78.7648 8.28455H78.7567Z" fill="#AEFFFF"/>
<path fill-rule="evenodd" clip-rule="evenodd" d="M31.0503 70.8897C31.1312 71.0515 31.1797 71.2133 31.2687 71.3831C32.2959 73.5509 34.3666 76.0664 37.2138 78.5415C37.2138 78.5415 37.3755 78.7033 37.7072 78.954C43.0213 83.4593 50.8187 87.7948 59.3198 89.8654C73.1107 93.2383 93.9953 94.0229 108.328 85.9425C122.653 77.8701 130.733 50.5956 128.024 41.3423C127.296 38.8672 126.244 35.5671 124.683 31.9273C120.429 22.0107 112.429 9.55441 97.2711 4.28877C85.8339 0.309217 69.8672 0.0908262 57.4755 2.3637C53.6011 3.07549 50.0988 4.02994 47.1627 5.1866C45.1729 5.9631 43.4501 6.82857 42.0831 7.79111L41.5169 8.20362C41.1206 8.48672 40.7727 8.79408 40.4573 9.10954C23.2449 25.9256 26.4561 59.3636 31.0584 70.8816L31.0503 70.8897ZM30.5974 36.2304C31.9805 26.9124 35.3615 17.6915 42.0588 11.1236C42.3662 10.8405 42.6816 10.5412 43.0537 10.2743L43.5956 9.87795C44.8817 8.98012 46.4832 8.17127 48.3598 7.43521C51.1099 6.35135 54.3938 5.46161 58.0256 4.80644C65.281 3.97332 75.2865 4.25642 85.292 9.02865C100.385 16.2355 103.928 29.347 103.799 31.5876C103.677 33.4884 99.2528 39.2717 96.8586 52.1729C96.4299 54.4781 96.0659 56.9936 95.799 59.768L91.4797 59.9217C91.4797 59.9217 86.1656 78.2503 63.7927 80.4585C45.6016 82.2379 36.1056 72.9523 33.4526 69.5228C33.3717 69.3691 33.3232 69.2154 33.2585 69.0779C30.7187 62.7527 28.648 49.3985 30.5974 36.2385V36.2304Z" fill="url(#paint31_linear_75_68)"/>
<path opacity="0.3" d="M33.2504 69.0701C33.3151 69.2238 33.3717 69.3775 33.4526 69.5231C36.1137 72.9526 45.6096 82.2463 63.7927 80.4507C86.1655 78.2506 91.4716 59.922 91.4716 59.922L95.799 59.7683C96.0659 57.002 96.4299 54.4703 96.8586 52.1732C99.2447 39.272 103.669 33.4806 103.782 31.5879C103.92 29.3554 100.377 16.2277 85.292 9.02895C75.2865 4.25671 65.2648 3.9817 58.0174 4.80673C54.3857 5.46999 51.1018 6.35973 48.3517 7.4436C46.4832 8.17156 44.8736 8.99659 43.5875 9.88633L43.0537 10.2827C42.6816 10.5496 42.3581 10.8489 42.0588 11.132C35.3696 17.6837 31.9724 26.9127 30.5973 36.2388C28.648 49.3988 30.7186 62.753 33.2504 69.0701Z" fill="url(#paint32_radial_75_68)"/>
<path style="mix-blend-mode:screen" d="M33.2504 69.0701C33.3151 69.2238 33.3717 69.3775 33.4526 69.5231C36.1137 72.9526 45.6096 82.2463 63.7927 80.4507C86.1655 78.2506 91.4716 59.922 91.4716 59.922L95.799 59.7683C96.0659 57.002 96.4299 54.4703 96.8586 52.1732C99.2447 39.272 103.669 33.4806 103.782 31.5879C103.92 29.3554 100.377 16.2277 85.292 9.02895C75.2865 4.25671 65.2648 3.9817 58.0174 4.80673C54.3857 5.46999 51.1018 6.35973 48.3517 7.4436C46.4832 8.17156 44.8736 8.99659 43.5875 9.88633L43.0537 10.2827C42.6816 10.5496 42.3581 10.8489 42.0588 11.132C35.3696 17.6837 31.9724 26.9127 30.5973 36.2388C28.648 49.3988 30.7186 62.753 33.2504 69.0701Z" fill="url(#paint33_radial_75_68)"/>
<path style="mix-blend-mode:multiply" fill-rule="evenodd" clip-rule="evenodd" d="M37.6992 78.9531C43.0053 83.4504 50.8107 87.7858 59.3037 89.8727C73.0946 93.2456 93.9792 94.014 108.312 85.9416C122.629 77.8693 130.717 50.5948 128.016 41.3496C127.296 38.8745 126.236 35.5824 124.667 31.9345C123.025 29.8396 120.833 28.4726 117.913 28.6667C107.188 29.3866 100.774 63.229 100.774 63.229L95.7102 62.2584C95.7102 62.2584 90.3313 81.4929 68.8401 85.7718C50.0423 89.5168 40.0044 80.7488 37.6992 78.9612V78.9531Z" fill="url(#paint34_linear_75_68)"/>
<path fill-rule="evenodd" clip-rule="evenodd" d="M114.815 80.5623C109.258 84.4367 100.336 81.5815 101.242 64.0051C102.172 46.3721 113.901 30.5266 113.901 30.5266C99.2525 30.4458 97.748 60.98 97.748 60.98C97.8694 62.2984 98.015 63.5279 98.1849 64.6845L98.201 64.8139C101.703 89.3707 113.763 81.3226 114.815 80.5704V80.5623Z" fill="url(#paint35_linear_75_68)"/>
<path fill-rule="evenodd" clip-rule="evenodd" d="M128.46 43.9378C127.643 37.8067 124.392 33.3499 120.97 33.0587C117.549 32.7675 106.734 46.9629 106.71 64.4503C106.686 81.9296 118.285 77.6265 121.229 71.3256L122.927 67.9041C122.927 67.9041 113.318 77.8368 110.172 66.8122C106.581 54.2264 118.244 39.9906 123.146 42.6355C128.056 45.2805 127.312 55.0919 127.312 55.0919C127.312 55.0919 128.994 47.9902 128.452 43.9297L128.46 43.9378Z" fill="#53345F"/>
<path d="M96.3814 30.5677C96.3814 30.5677 96.9153 25.4153 96.5594 23.8138C96.5594 23.8138 93.6071 20.546 89.6113 18.9121L85.5186 27.6396C85.5186 27.6396 94.0681 29.5324 96.3814 30.5596V30.5677Z" fill="white"/>
<path d="M86.7475 60.1146C86.7475 60.1146 85.1136 64.3611 82.8084 66.723L80.4385 64.992C80.4385 64.992 82.8489 61.2794 83.9813 58.9984L86.7475 60.1146Z" fill="white"/>
<path style="mix-blend-mode:lighten" d="M31.05 70.8892C31.1228 71.051 31.1794 71.2127 31.2603 71.3745C34.0994 75.0305 44.2181 84.939 63.6144 83.0301C87.4675 80.6844 93.1295 61.1425 93.1295 61.1425L97.74 60.9727C98.0231 58.0203 98.4113 55.3269 98.8723 52.876H98.8562C98.8562 52.876 65.5314 11.2605 28.2109 35.882C26.1322 49.9156 28.3403 64.1514 31.0419 70.8892H31.05Z" fill="url(#paint36_linear_75_68)"/>
<path style="mix-blend-mode:screen" d="M52.2909 28.4569C51.8461 31.3526 56.7073 34.499 63.1538 35.4939C69.6004 36.4888 75.1815 34.9439 75.6263 32.0563C76.0712 29.1606 71.21 26.0141 64.7634 25.0193C58.3169 24.0244 52.7358 25.5693 52.2909 28.4569Z" fill="url(#paint37_radial_75_68)"/>
<path style="mix-blend-mode:screen" d="M29.9338 75.4357C32.8618 75.5166 35.5391 64.1845 35.9193 50.1347C36.2994 36.085 34.2288 24.6235 31.3089 24.5507C28.3808 24.4698 25.7035 35.8019 25.3233 49.8516C24.9432 63.9014 27.0138 75.3629 29.9338 75.4357Z" fill="url(#paint38_radial_75_68)"/>
<path d="M93.9623 9.86915C93.9623 9.86915 81.3442 3.14758 72.8027 2.2821C72.8027 2.2821 103.41 2.39534 93.9623 9.86915Z" fill="white"/>
<path d="M107.284 41.981L102.431 39.9508L100.466 45.2731L105.206 46.8018L107.284 41.981Z" fill="white"/>
<path fill-rule="evenodd" clip-rule="evenodd" d="M61.2529 124.378L63.9545 112.641L62.5957 124.386L61.3177 129.708L61.2529 124.378Z" fill="#00FFFF"/>
<g style="mix-blend-mode:color">
<path style="mix-blend-mode:color-burn" fill-rule="evenodd" clip-rule="evenodd" d="M199.527 153.392C194.051 141.106 178.836 130.429 153.94 140.798C138.83 147.099 127.587 149.437 119.345 149.801C117.153 145.651 115.713 142.934 115.713 142.934C115.713 142.934 114.54 141.276 112.243 136.673C112.389 136.77 112.534 136.859 112.68 136.948C112.696 136.956 112.712 136.973 112.721 136.981C115.948 139.31 119.669 140.103 119.669 140.103C122.022 140.717 124.408 140.871 126.778 140.459C130.952 139.739 134.365 138.129 137.075 136.269L137.196 136.22C137.196 136.22 137.196 136.204 137.188 136.196C141.556 133.163 144.08 129.515 144.986 128.027C145.034 127.946 145.083 127.865 145.123 127.8C145.164 127.719 145.204 127.655 145.228 127.606C145.325 127.436 145.374 127.355 145.374 127.355C145.374 127.355 148.577 125.754 148.415 122.292C150.081 121.75 151.537 121.095 152.807 120.367C154.7 119.331 156.593 117.94 157.903 116.112C161.13 112.173 161.389 108.226 161.389 108.226C155.752 104.756 149.402 110.208 149.402 110.208L148.836 107.635C146.838 108.533 145.592 110.022 144.824 111.469C144.775 111.364 144.743 111.308 144.743 111.308L142.689 110.927C142.689 110.927 141.758 108.137 138.911 107.821L138.855 107.7C138.855 107.7 138.774 107.741 138.669 107.805C135.708 107.603 129.399 109.059 121.165 106.026C120.461 105.767 119.725 105.476 118.973 105.16L113.165 102.386C113.165 102.386 113.093 102.41 113.06 102.426C112.219 102.006 111.37 101.577 110.545 101.14C109.113 100.372 106.557 98.8917 104.365 97.6056C102.165 96.3195 100.321 95.2195 100.321 95.2195C99.9245 94.9607 99.5686 94.718 99.2693 94.4996C98.7678 94.1437 98.4119 93.8525 98.2259 93.6584C96.7052 92.0569 94.2787 91.1105 94.2787 91.1105H94.2544L93.1786 91.159C98.598 90.1803 103.791 88.5141 108.32 85.9581C113.279 83.1676 117.477 78.0718 120.752 72.2238C120.898 71.9892 121.027 71.7466 121.149 71.5039C125.064 64.2809 127.563 56.0144 128.307 49.5355C128.534 47.6913 128.663 45.7177 128.485 44.1485C128.404 43.097 128.259 42.1587 128.024 41.358C127.895 40.8969 127.741 40.4035 127.579 39.8859C127.579 39.8859 127.579 39.8778 127.579 39.8697C127.49 39.5785 127.393 39.2792 127.304 38.9799C127.264 38.8748 127.231 38.7616 127.199 38.6483C127.11 38.3733 127.021 38.0902 126.924 37.8071C126.9 37.7262 126.875 37.6534 126.843 37.5725C126.261 35.8497 125.557 33.9489 124.692 31.9348C120.437 22.0183 112.437 9.56195 97.2795 4.30441C97.2391 4.28823 97.1986 4.28014 97.1582 4.26396C96.4949 3.98895 95.8155 3.71394 95.1118 3.4632C83.6746 -0.621509 67.7079 -0.839898 55.3162 1.4896C51.4418 2.22565 47.9395 3.20437 45.0034 4.38529C43.0136 5.17797 41.2907 6.07579 39.9237 7.05451L39.3575 7.4832C38.9612 7.77439 38.6134 8.08984 38.2979 8.41338C21.0855 25.6581 24.2967 59.9373 28.8991 71.7385C28.98 71.9083 29.0285 72.0701 29.1175 72.24C30.1447 74.4562 32.2154 77.0446 35.0625 79.5763C35.0625 79.5763 35.2243 79.7461 35.556 79.9969C40.8701 84.6154 48.6594 89.0641 57.1685 91.1833C58.7458 91.5796 60.4201 91.9436 62.1591 92.2591C60.9539 92.5503 59.6517 92.9224 58.3575 93.4158C53.7713 95.171 38.7024 96.0364 31.3256 93.1569C23.9489 90.2774 21.5466 87.3817 19.6782 87.3574C18.5781 87.3574 17.5024 88.3604 16.7906 89.2016C15.6582 86.6376 13.8949 83.7742 12.2448 82.2778L11.0882 83.9522C11.0882 83.9522 9.29251 81.2587 1.99666 80.6601C1.99666 80.6601 -1.67557 81.0969 1.00174 89.4443C2.55473 94.2812 5.87914 97.7512 8.75866 99.9917C10.2308 101.148 11.5896 101.965 12.536 102.483C12.4713 104.481 13.1264 106.058 15.1486 106.43C16.0302 110.426 20.1716 115.271 25.4453 119.34L25.51 119.404C27.7828 121.151 30.258 122.753 32.7735 124.087C32.7735 124.087 33.8412 124.694 35.3133 125.374C36.7854 126.061 38.6619 126.821 40.2796 127.145C42.0753 127.63 43.7981 127.905 45.3835 127.897C45.8688 127.897 46.3541 127.857 46.8233 127.808C47.2358 127.76 47.6402 127.687 48.0447 127.598C48.0447 127.598 48.0446 127.598 48.0527 127.598C53.2779 126.449 57.7751 122.243 60.7598 118.701C60.8164 119.89 60.9054 121.119 61.0267 122.389C61.0995 123.044 61.1723 123.707 61.2532 124.395C61.2532 124.395 56.6347 139.035 56.9663 155.528V155.56L56.4891 164.312C56.392 164.773 56.295 165.282 56.1898 165.816C54.4103 174.989 48.2792 193.131 49.2984 200.799C49.994 206.04 54.9037 212.325 59.5546 217.235C56.9906 218.246 56.0523 219.476 56.0361 219.5C56.0361 219.5 57.0634 220.745 58.948 222.217C60.8245 223.69 63.5908 225.429 67.1417 226.521C67.1417 226.521 60.323 228.866 60.3149 236.583L79.784 225.728L78.7811 223.358L79.5414 217.356C79.5414 217.356 79.5414 217.356 79.5252 217.356C79.2421 217.292 78.9752 217.227 78.6921 217.162C79.1369 213.336 79.8164 208.16 80.8032 202.765L82.2591 195.631C82.6717 193.859 83.1165 192.104 83.5937 190.43H83.6342V190.3C84.2004 188.31 84.8313 186.426 85.5026 184.703L85.9152 183.684C85.988 183.514 86.0526 183.344 86.1254 183.182L93.1058 183.255H93.6639C93.6639 183.255 97.1501 187.275 101.13 191.926C101.089 192.371 101.081 192.622 101.081 192.638H101.348C101.348 192.638 101.348 192.484 101.372 192.209C103.88 195.137 106.565 198.292 108.676 200.831C108.676 200.831 110.254 202.951 112.114 205.07C112.591 205.652 113.19 206.283 113.869 206.946C114.346 207.416 114.815 207.852 115.26 208.208C117.752 210.376 120.987 212.705 124.166 214.63C123.867 215.051 123.559 215.496 123.268 215.957C123.268 215.957 123.761 216.248 124.659 216.539L134.972 220.923L135.522 223.431C135.522 223.431 135.538 223.455 135.571 223.495C136.202 224.474 143.57 235.458 152.241 233.299H152.257C152.257 233.299 151.643 224.248 142.098 218.61L142.203 205.563C142.203 205.563 141.88 205.515 141.305 205.499C141.289 204.876 141.281 204.245 141.265 203.614C141.216 201.462 141.136 199.319 141.014 197.418C141.014 197.184 140.99 193.099 140.044 190.891C138.822 187.768 134.616 179.332 130.03 170.386C132.157 170.888 134.374 171.624 136.638 172.659C141.144 174.722 145.511 177.739 149.742 180.659C159.262 187.243 169.065 194.021 181.691 191.238C183.956 190.745 186.31 189.936 188.769 188.771C202.277 182.357 204.865 165.42 199.51 153.4L199.527 153.392ZM187.402 185.86C172.891 192.743 162.538 185.585 151.578 178.006C147.234 175.005 142.753 171.899 137.989 169.723C134.56 168.162 131.251 167.216 128.153 166.698C126.795 164.061 125.428 161.432 124.125 158.941C124.125 158.941 124.142 158.941 124.142 158.933L124.061 158.828C122.969 156.733 121.925 154.735 120.963 152.907C129.48 152.316 140.65 149.809 155.169 143.767C177.898 134.295 191.47 143.201 196.582 154.694C201.322 165.339 199.155 180.279 187.394 185.86H187.402Z" fill="url(#paint39_radial_75_68)" fill-opacity="0.5"/>
</g>
<defs>
<radialGradient id="paint0_radial_75_68" cx="0" cy="0" r="1" gradientUnits="userSpaceOnUse" gradientTransform="translate(42.9837 106.407) rotate(167.58) scale(24.7671 24.7671)">
<stop stop-color="#F4DBEE"/>
<stop offset="1" stop-color="#D1BDE5"/>
</radialGradient>
<linearGradient id="paint1_linear_75_68" x1="72.2419" y1="106.879" x2="43.5519" y2="113.198" gradientUnits="userSpaceOnUse">
<stop stop-color="#9579A7"/>
<stop offset="1" stop-color="white"/>
</linearGradient>
<radialGradient id="paint2_radial_75_68" cx="0" cy="0" r="1" gradientUnits="userSpaceOnUse" gradientTransform="translate(50.704 192.872) rotate(167.58) scale(26.401 26.401)">
<stop stop-color="#F4F1FF"/>
<stop offset="1" stop-color="#D1BDE5"/>
</radialGradient>
<radialGradient id="paint3_radial_75_68" cx="0" cy="0" r="1" gradientUnits="userSpaceOnUse" gradientTransform="translate(119.669 113.885) rotate(167.58) scale(27.0319 27.0319)">
<stop stop-color="#F4DBEE"/>
<stop offset="1" stop-color="#D1BDE5"/>
</radialGradient>
<radialGradient id="paint4_radial_75_68" cx="0" cy="0" r="1" gradientUnits="userSpaceOnUse" gradientTransform="translate(116.053 183.367) rotate(167.58) scale(31.8365 31.8365)">
<stop stop-color="#F4F1FF"/>
<stop offset="1" stop-color="#D1BDE5"/>
</radialGradient>
<linearGradient id="paint5_linear_75_68" x1="149.16" y1="147.195" x2="57.9237" y2="167.288" gradientUnits="userSpaceOnUse">
<stop stop-color="white"/>
<stop offset="1" stop-color="#9579A7"/>
</linearGradient>
<linearGradient id="paint6_linear_75_68" x1="80.1337" y1="220.299" x2="58.6715" y2="225.025" gradientUnits="userSpaceOnUse">
<stop stop-color="white"/>
<stop offset="1" stop-color="#9579A7"/>
</linearGradient>
<linearGradient id="paint7_linear_75_68" x1="143.686" y1="212.406" x2="123.471" y2="216.858" gradientUnits="userSpaceOnUse">
<stop stop-color="white"/>
<stop offset="1" stop-color="#9579A7"/>
</linearGradient>
<linearGradient id="paint8_linear_75_68" x1="157.901" y1="116.183" x2="143.967" y2="119.252" gradientUnits="userSpaceOnUse">
<stop stop-color="white"/>
<stop offset="1" stop-color="#9579A7"/>
</linearGradient>
<linearGradient id="paint9_linear_75_68" x1="18.0749" y1="97.7784" x2="9.60696" y2="99.6433" gradientUnits="userSpaceOnUse">
<stop stop-color="#9579A7"/>
<stop offset="1" stop-color="white"/>
</linearGradient>
<linearGradient id="paint10_linear_75_68" x1="59.8194" y1="11.7767" x2="70.2086" y2="58.951" gradientUnits="userSpaceOnUse">
<stop stop-color="#007C7E"/>
<stop offset="1" stop-color="#0F183B"/>
</linearGradient>
<radialGradient id="paint11_radial_75_68" cx="0" cy="0" r="1" gradientUnits="userSpaceOnUse" gradientTransform="translate(77.6589 47.3879) rotate(167.58) scale(69.5371 69.5371)">
<stop stop-color="#00C6FF"/>
<stop offset="0.15" stop-color="#00ADDF"/>
<stop offset="0.47" stop-color="#006F90"/>
<stop offset="0.93" stop-color="#000E12"/>
<stop offset="1"/>
</radialGradient>
<linearGradient id="paint12_linear_75_68" x1="29.8918" y1="38.5013" x2="102.015" y2="48.0941" gradientUnits="userSpaceOnUse">
<stop stop-color="#00C6FF"/>
<stop offset="0.15" stop-color="#00ADDF"/>
<stop offset="0.47" stop-color="#006F90"/>
<stop offset="0.93" stop-color="#000E12"/>
<stop offset="1"/>
</linearGradient>
<linearGradient id="paint13_linear_75_68" x1="82.192" y1="78.824" x2="62.4495" y2="17.7363" gradientUnits="userSpaceOnUse">
<stop offset="0.02" stop-color="#FFAE78"/>
<stop offset="1" stop-color="#FF957C"/>
</linearGradient>
<linearGradient id="paint14_linear_75_68" x1="83.2008" y1="78.4977" x2="63.4583" y2="17.4101" gradientUnits="userSpaceOnUse">
<stop offset="0.02" stop-color="#F0C2D6"/>
<stop offset="0.99" stop-color="#BD89C4"/>
</linearGradient>
<linearGradient id="paint15_linear_75_68" x1="84.3019" y1="64.6768" x2="63.833" y2="1.34179" gradientUnits="userSpaceOnUse">
<stop stop-color="#813645"/>
<stop offset="1" stop-color="#BD5042"/>
</linearGradient>
<linearGradient id="paint16_linear_75_68" x1="79.9408" y1="42.872" x2="74.961" y2="27.4635" gradientUnits="userSpaceOnUse">
<stop stop-color="#813645"/>
<stop offset="1" stop-color="#BD5042"/>
</linearGradient>
<linearGradient id="paint17_linear_75_68" x1="52.648" y1="43.642" x2="48.5164" y2="30.858" gradientUnits="userSpaceOnUse">
<stop stop-color="#813645"/>
<stop offset="1" stop-color="#BD5042"/>
</linearGradient>
<linearGradient id="paint18_linear_75_68" x1="77.5525" y1="59.7353" x2="72.2543" y2="43.3416" gradientUnits="userSpaceOnUse">
<stop stop-color="white"/>
<stop offset="1" stop-color="#D0C7F8"/>
</linearGradient>
<linearGradient id="paint19_linear_75_68" x1="52.8688" y1="58.8973" x2="47.904" y2="43.535" gradientUnits="userSpaceOnUse">
<stop stop-color="white"/>
<stop offset="1" stop-color="#D0C7F8"/>
</linearGradient>
<linearGradient id="paint20_linear_75_68" x1="69.7253" y1="61.8492" x2="69.6457" y2="44.9387" gradientUnits="userSpaceOnUse">
<stop stop-color="#6F8B8B"/>
<stop offset="0.98" stop-color="#5C435B"/>
</linearGradient>
<linearGradient id="paint21_linear_75_68" x1="53.8634" y1="60.5833" x2="54.2888" y2="45.9928" gradientUnits="userSpaceOnUse">
<stop stop-color="#6F8B8B"/>
<stop offset="0.98" stop-color="#5C435B"/>
</linearGradient>
<linearGradient id="paint22_linear_75_68" x1="70.8316" y1="67.501" x2="69.239" y2="64.0459" gradientUnits="userSpaceOnUse">
<stop stop-color="#BD89C4"/>
<stop offset="0.98" stop-color="#F0C2D6"/>
</linearGradient>
<linearGradient id="paint23_linear_75_68" x1="87.1109" y1="21.8447" x2="81.3874" y2="4.13496" gradientUnits="userSpaceOnUse">
<stop stop-color="#AA454F"/>
<stop offset="1" stop-color="#D98638"/>
</linearGradient>
<linearGradient id="paint24_linear_75_68" x1="59.2495" y1="16.6706" x2="55.1975" y2="4.1329" gradientUnits="userSpaceOnUse">
<stop stop-color="#B14D4E"/>
<stop offset="1" stop-color="#D98638"/>
</linearGradient>
<linearGradient id="paint25_linear_75_68" x1="46.6128" y1="26.7302" x2="53.2396" y2="24.5886" gradientUnits="userSpaceOnUse">
<stop offset="0.02" stop-color="#F0C2D6"/>
<stop offset="0.99" stop-color="#BD89C4"/>
</linearGradient>
<linearGradient id="paint26_linear_75_68" x1="54.2432" y1="27.247" x2="48.9102" y2="10.7455" gradientUnits="userSpaceOnUse">
<stop stop-color="#BD89C4"/>
<stop offset="0.98" stop-color="#F0C2D6"/>
</linearGradient>
<linearGradient id="paint27_linear_75_68" x1="103.119" y1="58.5956" x2="91.9011" y2="23.8841" gradientUnits="userSpaceOnUse">
<stop stop-color="#BD89C4"/>
<stop offset="0.98" stop-color="#F0C2D6"/>
</linearGradient>
<linearGradient id="paint28_linear_75_68" x1="102.318" y1="74.1153" x2="101.275" y2="55.6949" gradientUnits="userSpaceOnUse">
<stop offset="0.02" stop-color="#FF8359"/>
<stop offset="1" stop-color="#FF8B7C"/>
</linearGradient>
<linearGradient id="paint29_linear_75_68" x1="95.4097" y1="66.0084" x2="107.483" y2="65.325" gradientUnits="userSpaceOnUse">
<stop stop-color="#B060F4"/>
<stop offset="1" stop-color="#FFEADB"/>
</linearGradient>
<linearGradient id="paint30_linear_75_68" x1="70.8933" y1="22.2146" x2="65.3987" y2="5.21293" gradientUnits="userSpaceOnUse">
<stop stop-color="#AA454F"/>
<stop offset="1" stop-color="#D98638"/>
</linearGradient>
<linearGradient id="paint31_linear_75_68" x1="87.2998" y1="92.7058" x2="66.9824" y2="0.450611" gradientUnits="userSpaceOnUse">
<stop stop-color="#D1BDE5"/>
<stop offset="1" stop-color="white"/>
</linearGradient>
<radialGradient id="paint32_radial_75_68" cx="0" cy="0" r="1" gradientUnits="userSpaceOnUse" gradientTransform="translate(54.3095 38.2431) rotate(167.58) scale(44.2281 44.2281)">
<stop stop-color="#0F183B"/>
<stop offset="1" stop-color="#00E7FF"/>
</radialGradient>
<radialGradient id="paint33_radial_75_68" cx="0" cy="0" r="1" gradientUnits="userSpaceOnUse" gradientTransform="translate(53.6872 31.9199) rotate(167.58) scale(50.3754 50.3754)">
<stop/>
<stop offset="0.27" stop-color="#000002"/>
<stop offset="0.41" stop-color="#000209"/>
<stop offset="0.52" stop-color="#000417"/>
<stop offset="0.61" stop-color="#00082A"/>
<stop offset="0.69" stop-color="#000E42"/>
<stop offset="0.77" stop-color="#001460"/>
<stop offset="0.84" stop-color="#001C84"/>
<stop offset="0.9" stop-color="#0024AE"/>
<stop offset="0.96" stop-color="#002EDC"/>
<stop offset="1" stop-color="#0036FF"/>
</radialGradient>
<linearGradient id="paint34_linear_75_68" x1="130.882" y1="54.5328" x2="36.8254" y2="75.2468" gradientUnits="userSpaceOnUse">
<stop stop-color="white"/>
<stop offset="1" stop-color="#9579A7"/>
</linearGradient>
<linearGradient id="paint35_linear_75_68" x1="113.439" y1="81.9121" x2="102.66" y2="32.9684" gradientUnits="userSpaceOnUse">
<stop stop-color="#D1BDE5"/>
<stop offset="1" stop-color="#F4DBEE"/>
</linearGradient>
<linearGradient id="paint36_linear_75_68" x1="68.5099" y1="31.1559" x2="51.9635" y2="83.4008" gradientUnits="userSpaceOnUse">
<stop stop-color="#36388A"/>
<stop offset="1"/>
</linearGradient>
<radialGradient id="paint37_radial_75_68" cx="0" cy="0" r="1" gradientUnits="userSpaceOnUse" gradientTransform="translate(65.9428 30.4272) rotate(-171.24) scale(11.795 5.29572)">
<stop stop-color="#003CEE"/>
<stop offset="0.06" stop-color="#0035D5"/>
<stop offset="0.2" stop-color="#00279D"/>
<stop offset="0.34" stop-color="#001B6D"/>
<stop offset="0.48" stop-color="#001146"/>
<stop offset="0.62" stop-color="#000927"/>
<stop offset="0.75" stop-color="#000411"/>
<stop offset="0.88" stop-color="#000104"/>
<stop offset="1"/>
</radialGradient>
<radialGradient id="paint38_radial_75_68" cx="0" cy="0" r="1" gradientUnits="userSpaceOnUse" gradientTransform="translate(33.0791 48.0811) rotate(91.54) scale(25.4355 5.29571)">
<stop stop-color="#003CEE"/>
<stop offset="0.06" stop-color="#0035D5"/>
<stop offset="0.2" stop-color="#00279D"/>
<stop offset="0.34" stop-color="#001B6D"/>
<stop offset="0.48" stop-color="#001146"/>
<stop offset="0.62" stop-color="#000927"/>
<stop offset="0.75" stop-color="#000411"/>
<stop offset="0.88" stop-color="#000104"/>
<stop offset="1"/>
</radialGradient>
<radialGradient id="paint39_radial_75_68" cx="0" cy="0" r="1" gradientUnits="userSpaceOnUse" gradientTransform="translate(-6.61765 115.667) scale(154.062 154.062)">
<stop stop-color="#00D5FF"/>
<stop offset="0.18" stop-color="#28DBFF"/>
<stop offset="0.59" stop-color="#90ECFF"/>
<stop offset="1" stop-color="white"/>
</radialGradient>
</defs>
</svg>
